<svg xmlns="http://www.w3.org/2000/svg" xmlns:xlink="http://www.w3.org/1999/xlink" width="1080" zoomAndPan="magnify" viewBox="0 0 810 809.999993" height="1080" preserveAspectRatio="xMidYMid meet" version="1.0"><defs><g/></defs><g fill="#f97bd2" fill-opacity="1"><g transform="translate(67.674771, 510.979983)"><g><path d="M 65.125 -8.28125 L 63.375 -12.75 L 60.78125 -17.71875 L 36.9375 -77.5 L 34.390625 -81.65625 L 26.1875 -101.390625 L 24.375 -107.203125 L 12.328125 -136.671875 L 9.765625 -141.125 L -2.5625 -171.109375 L -4.140625 -178.265625 L -3.3125 -184.4375 L 2.234375 -186.25 L 7.828125 -186.734375 L 12.59375 -187.703125 L 17.4375 -186.8125 L 38.78125 -187.328125 L 43.953125 -185.109375 L 48.90625 -181.03125 L 51.21875 -175.765625 L 52.484375 -170.46875 L 56.0625 -160.1875 L 58.375 -155.734375 L 77.578125 -98.21875 L 78.890625 -91.84375 L 81 -92.1875 L 84.625 -102.484375 L 85.5 -108.109375 L 88.03125 -112.21875 L 96.5 -143.5 L 100.125 -153.25 L 107.96875 -179.984375 L 112.3125 -185.484375 L 117.546875 -188.359375 L 123.40625 -188.5625 L 129.125 -185.578125 L 133.046875 -180.375 L 135.375 -175.65625 L 137.671875 -171.203125 L 141.28125 -160.640625 L 143.5625 -155.65625 L 146.609375 -145.625 L 159.203125 -115.890625 L 160.734375 -110.609375 L 166.640625 -95.609375 L 169.296875 -95.4375 L 170.703125 -100.5625 L 172.171875 -111.828125 L 175.234375 -123.171875 L 176.09375 -128.546875 L 189.03125 -176.046875 L 191.265625 -180.640625 L 192.421875 -185.765625 L 196.75 -191.53125 L 202.25 -194.40625 L 207.359375 -193.796875 L 212.921875 -194.53125 L 223.625 -194.40625 L 232.9375 -195.28125 L 238.296875 -194.671875 L 243.6875 -193.53125 L 245.515625 -187.171875 L 241.046875 -170.71875 L 238.5625 -165.828125 L 237.453125 -159.90625 L 222.03125 -113.9375 L 221.140625 -109.359375 L 218.90625 -104.484375 L 217.0625 -96.9375 L 209.09375 -73.9375 L 206.859375 -69.296875 L 192.5625 -22.3125 L 190.34375 -17.421875 L 188.921875 -12.296875 L 185.109375 -7.34375 L 178.78125 -4.984375 L 174.265625 -4 L 169.21875 -3.546875 L 162.96875 -6.53125 L 157.6875 -11.953125 L 155.90625 -16.953125 L 151.5625 -25.609375 L 134.859375 -66.125 L 129.984375 -75.03125 L 128.1875 -80.578125 L 125.34375 -85 L 122.640625 -85.703125 L 119.578125 -75.1875 L 115.140625 -64.859375 L 113.75 -59.21875 L 106.1875 -39.15625 L 105.015625 -34.859375 L 102.8125 -29.15625 L 101.65625 -24.5625 L 99.171875 -19.671875 L 97.796875 -13.75 L 95.5625 -9.125 L 91.484375 -3.359375 L 85.703125 -1.015625 L 75.578125 -0.375 L 69.59375 -3.625 Z M 65.125 -8.28125 "/></g></g></g><g fill="#f97bd2" fill-opacity="1"><g transform="translate(322.123012, 501.619726)"><g><path d="M 12.515625 -8.203125 L 11.75 -28.75 L 12.109375 -33.828125 L 15.125 -39.015625 L 32.515625 -45.265625 L 34.96875 -51.25 L 35.125 -61.65625 L 33.625 -73.078125 L 34.78125 -78.484375 L 33.3125 -88.828125 L 33.65625 -94.1875 L 33.53125 -105.125 L 32.484375 -111.234375 L 32.0625 -115.765625 L 32.03125 -138.46875 L 28.390625 -143.140625 L 11.90625 -148.15625 L 9.0625 -153.109375 L 8.875 -158.1875 L 8.125 -163.5 L 7.90625 -169.375 L 8.296875 -173.921875 L 8.109375 -179 L 10.828125 -184.6875 L 16.59375 -187.578125 L 27.046875 -187.4375 L 32.078125 -187.890625 L 48.375 -188.21875 L 54.203125 -188.96875 L 88.109375 -189.953125 L 96.71875 -187.859375 L 99.046875 -182.609375 L 99.78125 -177.28125 L 99.421875 -172.46875 L 100 -156.734375 L 97.25 -151.5625 L 92.296875 -148.4375 L 86.453125 -147.953125 L 81.484375 -144.828125 L 78.71875 -139.921875 L 79.125 -128.703125 L 79.859375 -123.125 L 79.53125 -117.78125 L 80.25 -112.71875 L 80.015625 -104.453125 L 80.84375 -96.453125 L 80.203125 -85.21875 L 81.65625 -74.578125 L 81.921875 -52.6875 L 85.0625 -47.46875 L 103.140625 -42.515625 L 107.046875 -38.125 L 106.828125 -21.828125 L 107.546875 -17.03125 L 107.765625 -11.171875 L 105 -6.265625 L 100.046875 -3.40625 L 20.78125 -1.03125 L 15.390625 -2.703125 Z M 12.515625 -8.203125 "/></g></g></g><g fill="#f97bd2" fill-opacity="1"><g transform="translate(443.212636, 497.165263)"><g><path d="M 20.234375 -8.75 L 19.25 -14.046875 L 19.59375 -18.890625 L 19.140625 -24.203125 L 19.453125 -30.09375 L 17.734375 -40.703125 L 18.140625 -51.421875 L 17.65625 -57.015625 L 18.28125 -61.828125 L 15.390625 -125.828125 L 14.390625 -131.40625 L 15.328125 -142.125 L 14.34375 -147.4375 L 13.890625 -152.484375 L 14.09375 -168.53125 L 13.359375 -173.828125 L 13.15625 -179.4375 L 16.71875 -184.375 L 20.875 -188 L 42.484375 -188.265625 L 47.8125 -189 L 53.421875 -188.671875 L 58.3125 -186.171875 L 61.203125 -180.390625 L 61.671875 -175.078125 L 62.65625 -170.046875 L 63.28125 -131.328125 L 64.25 -126.578125 L 64.1875 -120.953125 L 69.109375 -118.203125 L 75.484375 -118.703125 L 87.140625 -121.53125 L 91.609375 -123.828125 L 96.296875 -126.9375 L 100.171875 -130.546875 L 103.21875 -134.9375 L 106.53125 -139.0625 L 108.46875 -144.21875 L 110.75 -154.984375 L 111.6875 -166.234375 L 110.28125 -182.46875 L 113 -188.1875 L 119.28125 -191.625 L 127.0625 -191.109375 L 151.296875 -192.796875 L 157.015625 -190.078125 L 159.375 -184.015625 L 160.03125 -173.359375 L 159.140625 -168.25 L 159.90625 -162.40625 L 158.703125 -151.140625 L 158.625 -146.078125 L 156.328125 -135.8125 L 154.125 -130.15625 L 152.984375 -125.28125 L 150.5 -120.125 L 144.953125 -110.828125 L 137.515625 -102.8125 L 132.8125 -99.703125 L 130.65625 -93.484375 L 130.859375 -87.609375 L 140.703125 -74.625 L 148.921875 -61.03125 L 152.3125 -56.359375 L 154.625 -51.625 L 157.984375 -47.484375 L 163.375 -38.59375 L 167.546875 -34.21875 L 169.859375 -29.21875 L 172.703125 -24.78125 L 176.578125 -20.90625 L 179.21875 -14.609375 L 178.109375 -8.421875 L 173.65625 -5.859375 L 168.046875 -6.1875 L 138.4375 -5.09375 L 129.296875 -6.640625 L 124.09375 -10.453125 L 116.375 -24.046875 L 112.734375 -28.453125 L 110.171875 -32.90625 L 106.8125 -37.3125 L 99.640625 -50.953125 L 88.015625 -68.671875 L 82.8125 -72.5 L 74.75 -73.796875 L 68.203125 -70.34375 L 65.96875 -65.46875 L 66.578125 -48.921875 L 66.265625 -43.03125 L 68.25 -10.796875 L 65.78125 -4.828125 L 58.15625 -1.875 L 30.15625 -0.578125 L 22.3125 -3.234375 Z M 20.234375 -8.75 "/></g></g></g><g fill="#f97bd2" fill-opacity="1"><g transform="translate(628.047691, 490.36583)"><g><path d="M 12.515625 -8.203125 L 11.75 -28.75 L 12.109375 -33.828125 L 15.125 -39.015625 L 32.515625 -45.265625 L 34.96875 -51.25 L 35.125 -61.65625 L 33.625 -73.078125 L 34.78125 -78.484375 L 33.3125 -88.828125 L 33.65625 -94.1875 L 33.53125 -105.125 L 32.484375 -111.234375 L 32.0625 -115.765625 L 32.03125 -138.46875 L 28.390625 -143.140625 L 11.90625 -148.15625 L 9.0625 -153.109375 L 8.875 -158.1875 L 8.125 -163.5 L 7.90625 -169.375 L 8.296875 -173.921875 L 8.109375 -179 L 10.828125 -184.6875 L 16.59375 -187.578125 L 27.046875 -187.4375 L 32.078125 -187.890625 L 48.375 -188.21875 L 54.203125 -188.96875 L 88.109375 -189.953125 L 96.71875 -187.859375 L 99.046875 -182.609375 L 99.78125 -177.28125 L 99.421875 -172.46875 L 100 -156.734375 L 97.25 -151.5625 L 92.296875 -148.4375 L 86.453125 -147.953125 L 81.484375 -144.828125 L 78.71875 -139.921875 L 79.125 -128.703125 L 79.859375 -123.125 L 79.53125 -117.78125 L 80.25 -112.71875 L 80.015625 -104.453125 L 80.84375 -96.453125 L 80.203125 -85.21875 L 81.65625 -74.578125 L 81.921875 -52.6875 L 85.0625 -47.46875 L 103.140625 -42.515625 L 107.046875 -38.125 L 106.828125 -21.828125 L 107.546875 -17.03125 L 107.765625 -11.171875 L 105 -6.265625 L 100.046875 -3.40625 L 20.78125 -1.03125 L 15.390625 -2.703125 Z M 12.515625 -8.203125 "/></g></g></g><g fill="#ff84d9" fill-opacity="1"><g transform="translate(401.6083, 735.697624)"><g><path d="M 6.03125 0 L 5.6875 -0.09375 L 4.703125 -0.234375 L 4.40625 -0.3125 L 3.171875 -0.984375 L 2.59375 -1.359375 L 1.875 -2.0625 L 1.453125 -2.65625 L 1.125 -3.234375 L 0.609375 -4.84375 L 0.46875 -6.0625 L 0.46875 -6.625 L 0.734375 -8.359375 L 1.359375 -9.6875 L 1.546875 -9.9375 L 2.015625 -10.5 L 2.765625 -11.1875 L 3.703125 -11.8125 L 5.03125 -12.328125 L 5.359375 -12.359375 L 5.640625 -12.46875 L 5.984375 -12.5 L 7.625 -12.484375 L 8.4375 -12.265625 L 8.796875 -12.21875 L 10.03125 -11.609375 L 10.3125 -11.40625 L 10.59375 -11.15625 L 10.984375 -10.84375 L 11.703125 -9.859375 L 11.875 -9.546875 L 12.125 -8.84375 L 12.046875 -8.53125 L 11.609375 -8.34375 L 10.765625 -8.359375 L 10.25 -8.28125 L 9.71875 -8.28125 L 9.296875 -8.40625 L 8.90625 -8.6875 L 8.6875 -8.984375 L 8.46875 -9.1875 L 8.125 -9.421875 L 7.796875 -9.546875 L 7.140625 -9.703125 L 6.078125 -9.625 L 5.796875 -9.5 L 5.46875 -9.4375 L 5.171875 -9.265625 L 4.578125 -8.828125 L 4.0625 -7.984375 L 3.796875 -7.359375 L 3.6875 -6.6875 L 3.734375 -5.671875 L 3.84375 -5.125 L 4 -4.609375 L 4.34375 -4 L 4.546875 -3.765625 L 5.09375 -3.28125 L 6.03125 -2.9375 L 6.90625 -2.84375 L 7.359375 -2.875 L 8.046875 -3.046875 L 8.625 -3.296875 L 8.84375 -3.5 L 9.109375 -3.796875 L 9.265625 -4.09375 L 9.21875 -4.390625 L 8.953125 -4.515625 L 8.625 -4.546875 L 7.765625 -4.46875 L 7.265625 -4.484375 L 6.9375 -4.65625 L 6.78125 -4.9375 L 6.734375 -6.59375 L 6.875 -6.921875 L 7.21875 -7.109375 L 7.875 -7.171875 L 8.921875 -7.140625 L 11.265625 -7.25 L 11.640625 -7.21875 L 12 -7.203125 L 12.328125 -7.046875 L 12.515625 -6.75 L 12.578125 -6.078125 L 12.546875 -5.75 L 12.546875 -5.40625 L 12.5 -5.09375 L 12.484375 -4.796875 L 12.359375 -4.140625 L 12.046875 -3.09375 L 11.84375 -2.84375 L 11.53125 -2.21875 L 11.328125 -1.984375 L 11.0625 -1.75 L 10.828125 -1.484375 L 10.296875 -1.046875 L 9.078125 -0.390625 L 7.78125 -0.046875 Z M 6.03125 0 "/></g></g></g><g fill="#ff84d9" fill-opacity="1"><g transform="translate(414.914933, 735.333418)"><g><path d="M 5.828125 -0.09375 L 5.484375 -0.171875 L 4.625 -0.140625 L 4.109375 -0.0625 L 3.40625 -0.109375 L 3.0625 -0.0625 L 2.515625 -0.03125 L 2.015625 -0.09375 L 1.6875 -0.046875 L 1.359375 -0.03125 L 1.015625 -0.1875 L 0.8125 -0.640625 L 0.828125 -2.25 L 1.015625 -2.5625 L 2.140625 -2.953125 L 2.328125 -3.46875 L 2.125 -8.8125 L 1.953125 -9.28125 L 1.625 -9.46875 L 1.28125 -9.46875 L 0.875 -9.640625 L 0.6875 -10 L 0.703125 -10.328125 L 0.625 -11.609375 L 0.78125 -12.03125 L 1.125 -12.21875 L 1.53125 -12.21875 L 1.859375 -12.1875 L 3.296875 -12.21875 L 3.640625 -12.296875 L 3.953125 -12.265625 L 6.046875 -12.328125 L 6.375 -12.15625 L 6.59375 -11.828125 L 6.625 -10.09375 L 6.453125 -9.828125 L 6.078125 -9.671875 L 5.734375 -9.609375 L 5.375 -9.4375 L 5.25 -9.046875 L 5.234375 -7.265625 L 5.34375 -6.03125 L 5.296875 -5.65625 L 5.390625 -3.734375 L 5.328125 -3.390625 L 5.5625 -3.015625 L 5.96875 -2.890625 L 6.34375 -2.890625 L 6.734375 -2.703125 L 6.953125 -2.375 L 7 -0.65625 L 6.828125 -0.328125 L 6.515625 -0.140625 Z M 5.828125 -0.09375 "/></g></g></g><g fill="#ff84d9" fill-opacity="1"><g transform="translate(422.801632, 735.117557)"><g><path d="M 4.53125 -0.09375 L 4 -0.09375 L 3.5 -0.25 L 3.25 -0.640625 L 3.265625 -0.96875 L 3.28125 -1.96875 L 3.21875 -2.34375 L 3.203125 -3.75 L 3.234375 -4.09375 L 3.09375 -6.6875 L 3.140625 -7.171875 L 3.09375 -7.515625 L 3.109375 -7.90625 L 3.046875 -8.390625 L 3.078125 -8.953125 L 2.875 -9.28125 L 2.546875 -9.453125 L 0.890625 -9.4375 L 0.546875 -9.390625 L 0.21875 -9.5625 L 0.0625 -9.875 L 0.015625 -10.421875 L 0.015625 -11.28125 L 0 -11.625 L 0.1875 -12.03125 L 0.53125 -12.21875 L 1.734375 -12.1875 L 2.28125 -12.25 L 3.3125 -12.21875 L 3.625 -12.296875 L 4 -12.28125 L 4.375 -12.328125 L 4.703125 -12.328125 L 5.046875 -12.265625 L 6.453125 -12.375 L 6.78125 -12.34375 L 7.15625 -12.40625 L 7.484375 -12.390625 L 8.5625 -12.421875 L 8.890625 -12.203125 L 9.09375 -11.84375 L 9.125 -10.203125 L 8.921875 -9.8125 L 8.640625 -9.625 L 8.328125 -9.625 L 7.953125 -9.5625 L 7.3125 -9.625 L 6.640625 -9.578125 L 6.3125 -9.359375 L 6.1875 -8.828125 L 6.15625 -7.3125 L 6.234375 -6.953125 L 6.265625 -4.15625 L 6.34375 -3.765625 L 6.3125 -3.453125 L 6.34375 -2.765625 L 6.3125 -2.390625 L 6.390625 -1.734375 L 6.359375 -0.828125 L 6.203125 -0.34375 L 5.703125 -0.15625 Z M 4.53125 -0.09375 "/></g></g></g><g fill="#ff84d9" fill-opacity="1"><g transform="translate(432.512344, 734.851772)"><g><path d="M 1.25 -0.515625 L 1.28125 -1.9375 L 1.203125 -2.25 L 1.0625 -7.453125 L 1.078125 -7.8125 L 1.0625 -8.21875 L 1.078125 -8.890625 L 0.984375 -9.59375 L 1.015625 -9.9375 L 0.9375 -11.296875 L 0.96875 -11.6875 L 1.125 -12.046875 L 1.515625 -12.21875 L 3.234375 -12.234375 L 3.625 -12.28125 L 3.984375 -12.109375 L 4.15625 -11.78125 L 4.203125 -11.140625 L 4.171875 -10.75 L 4.203125 -9.390625 L 4.21875 -9.078125 L 4.234375 -8.71875 L 4.265625 -8.328125 L 4.4375 -8 L 4.765625 -7.859375 L 5.8125 -7.875 L 6.109375 -7.90625 L 6.5 -7.890625 L 7.15625 -7.984375 L 7.484375 -7.921875 L 7.828125 -8.125 L 8.03125 -8.484375 L 8 -9.828125 L 7.9375 -10.171875 L 7.953125 -10.875 L 7.90625 -11.171875 L 7.90625 -11.828125 L 8.078125 -12.265625 L 8.578125 -12.40625 L 10.578125 -12.4375 L 10.921875 -12.3125 L 11.09375 -11.953125 L 11.3125 -3.21875 L 11.359375 -2.9375 L 11.328125 -2.375 L 11.40625 -0.796875 L 11.21875 -0.5 L 10.890625 -0.265625 L 10.171875 -0.296875 L 9.828125 -0.25 L 8.921875 -0.234375 L 8.421875 -0.4375 L 8.203125 -0.703125 L 8.078125 -4.546875 L 7.90625 -4.875 L 7.5625 -5.0625 L 7.25 -5.0625 L 6.890625 -5.09375 L 4.828125 -5.03125 L 4.484375 -4.78125 L 4.328125 -4.421875 L 4.421875 -1.34375 L 4.46875 -0.953125 L 4.4375 -0.625 L 4.3125 -0.296875 L 3.953125 -0.078125 L 3.21875 -0.078125 L 2.859375 -0.03125 L 2.15625 -0.046875 L 1.8125 -0.015625 L 1.484375 -0.203125 Z M 1.25 -0.515625 "/></g></g></g><g fill="#ff84d9" fill-opacity="1"><g transform="translate(445.228344, 734.503731)"><g><path d="M 5.984375 0.0625 L 5.421875 0.046875 L 5.078125 0.046875 L 4.40625 -0.078125 L 3.734375 -0.359375 L 3.46875 -0.5 L 3.109375 -0.640625 L 2.546875 -1 L 2.28125 -1.203125 L 2.078125 -1.453125 L 1.640625 -2.0625 L 1.34375 -2.640625 L 1.15625 -3.359375 L 1.015625 -4.75 L 1 -7.546875 L 0.953125 -7.875 L 1 -8.21875 L 0.875 -10.65625 L 0.90625 -10.9375 L 0.890625 -11.359375 L 0.859375 -11.703125 L 1.0625 -12.03125 L 1.421875 -12.1875 L 1.796875 -12.25 L 2.546875 -12.203125 L 2.890625 -12.265625 L 3.21875 -12.265625 L 3.578125 -12.125 L 3.8125 -11.75 L 3.859375 -11.234375 L 3.828125 -10.6875 L 3.875 -10.421875 L 3.984375 -4.828125 L 4.109375 -3.8125 L 4.21875 -3.5 L 4.4375 -3.21875 L 4.71875 -3.015625 L 5.015625 -2.859375 L 5.421875 -2.78125 L 6.453125 -2.796875 L 7.0625 -3.0625 L 7.359375 -3.265625 L 7.546875 -3.609375 L 7.640625 -3.890625 L 7.734375 -4.96875 L 7.515625 -11.8125 L 7.6875 -12.203125 L 8.046875 -12.390625 L 8.78125 -12.359375 L 9.875 -12.421875 L 10.265625 -12.3125 L 10.5 -11.953125 L 10.453125 -11.59375 L 10.5 -10.15625 L 10.53125 -9.875 L 10.515625 -9.5 L 10.546875 -9.171875 L 10.6875 -4.46875 L 10.625 -3.640625 L 10.484375 -2.890625 L 10.3125 -2.59375 L 10.234375 -2.25 L 9.84375 -1.625 L 9.359375 -1.125 L 8.796875 -0.71875 L 8.1875 -0.375 L 6.828125 0 L 6.5 0 Z M 5.984375 0.0625 "/></g></g></g><g fill="#ff84d9" fill-opacity="1"><g transform="translate(457.214734, 734.17566)"><g><path d="M 1.28125 -0.578125 L 1.234375 -0.90625 L 1.171875 -4.703125 L 1.109375 -5.234375 L 1.09375 -8.546875 L 1.015625 -9.28125 L 1.015625 -10.3125 L 0.984375 -10.625 L 1 -10.984375 L 0.953125 -11.296875 L 0.953125 -11.6875 L 1.109375 -12.0625 L 1.5 -12.234375 L 3.609375 -12.265625 L 3.921875 -12.328125 L 4.59375 -12.28125 L 4.90625 -12.34375 L 6.703125 -12.34375 L 7.375 -12.203125 L 7.671875 -12.109375 L 8 -11.96875 L 8.3125 -11.796875 L 8.8125 -11.453125 L 9.09375 -11.203125 L 9.6875 -10.421875 L 9.828125 -10.078125 L 9.96875 -9.453125 L 10.03125 -8.90625 L 10.03125 -8.3125 L 9.828125 -7.6875 L 9.515625 -7 L 9.40625 -6.671875 L 9.578125 -6.265625 L 9.875 -6.03125 L 10.109375 -5.78125 L 10.453125 -5.078125 L 10.65625 -4.453125 L 10.65625 -3.046875 L 10.53125 -2.71875 L 10.421875 -2.375 L 10.265625 -2.015625 L 9.8125 -1.359375 L 9.125 -0.796875 L 8.8125 -0.609375 L 7.859375 -0.328125 L 7.546875 -0.25 L 5.75 -0.125 L 5.40625 -0.15625 L 2.890625 -0.0625 L 2.359375 -0.09375 L 1.796875 -0.03125 L 1.453125 -0.234375 Z M 4.671875 -7.5625 L 6 -7.65625 L 6.515625 -7.84375 L 6.75 -8.046875 L 6.859375 -8.546875 L 6.796875 -9.078125 L 6.65625 -9.359375 L 6.375 -9.484375 L 4.578125 -9.546875 L 4.25 -9.34375 L 4.0625 -8.84375 L 4.09375 -8.25 L 4.296875 -7.765625 Z M 4.734375 -2.90625 L 6.078125 -2.921875 L 7.03125 -3.015625 L 7.328125 -3.234375 L 7.5 -3.46875 L 7.578125 -3.984375 L 7.46875 -4.40625 L 7.28125 -4.71875 L 6.984375 -4.828125 L 5.359375 -4.953125 L 4.984375 -4.90625 L 4.65625 -4.9375 L 4.359375 -4.71875 L 4.203125 -4.421875 L 4.1875 -3.359375 L 4.421875 -3.03125 Z M 4.734375 -2.90625 "/></g></g></g><g fill="#ff84d9" fill-opacity="1"><g transform="translate(413.438457, 753.137575)"><g><path d="M 4.25 -0.484375 L 4.140625 -0.78125 L 3.96875 -1.125 L 2.453125 -5.03125 L 2.296875 -5.296875 L 1.78125 -6.578125 L 1.65625 -6.96875 L 0.875 -8.90625 L 0.71875 -9.203125 L -0.0625 -11.140625 L -0.15625 -11.609375 L -0.109375 -12.015625 L 0.265625 -12.140625 L 0.625 -12.171875 L 0.9375 -12.21875 L 1.25 -12.171875 L 2.640625 -12.1875 L 2.96875 -12.046875 L 3.3125 -11.765625 L 3.4375 -11.4375 L 3.53125 -11.078125 L 3.75 -10.40625 L 3.890625 -10.109375 L 5.109375 -6.34375 L 5.203125 -5.9375 L 5.34375 -5.96875 L 5.578125 -6.625 L 5.640625 -6.984375 L 5.8125 -7.265625 L 6.375 -9.296875 L 6.625 -9.921875 L 7.140625 -11.65625 L 7.421875 -12.03125 L 7.78125 -12.203125 L 8.15625 -12.21875 L 8.53125 -12.03125 L 8.78125 -11.671875 L 8.9375 -11.359375 L 9.078125 -11.0625 L 9.296875 -10.390625 L 9.453125 -10.0625 L 9.640625 -9.390625 L 10.4375 -7.46875 L 10.546875 -7.109375 L 10.921875 -6.125 L 11.09375 -6.125 L 11.1875 -6.453125 L 11.296875 -7.1875 L 11.5 -7.90625 L 11.5625 -8.28125 L 12.4375 -11.359375 L 12.578125 -11.65625 L 12.65625 -12 L 12.9375 -12.359375 L 13.3125 -12.546875 L 13.640625 -12.5 L 14 -12.546875 L 14.703125 -12.53125 L 15.3125 -12.578125 L 15.65625 -12.546875 L 16 -12.46875 L 16.125 -12.046875 L 15.828125 -10.96875 L 15.65625 -10.65625 L 15.578125 -10.28125 L 14.546875 -7.296875 L 14.46875 -7 L 14.328125 -6.671875 L 14.203125 -6.1875 L 13.671875 -4.6875 L 13.53125 -4.390625 L 12.5625 -1.328125 L 12.421875 -1.015625 L 12.3125 -0.6875 L 12.0625 -0.359375 L 11.65625 -0.203125 L 11.359375 -0.15625 L 11.03125 -0.125 L 10.625 -0.328125 L 10.28125 -0.6875 L 10.171875 -1.015625 L 9.90625 -1.5625 L 8.828125 -4.234375 L 8.515625 -4.8125 L 8.390625 -5.171875 L 8.21875 -5.46875 L 8.046875 -5.5 L 7.84375 -4.828125 L 7.546875 -4.15625 L 7.453125 -3.78125 L 6.953125 -2.484375 L 6.859375 -2.203125 L 6.71875 -1.84375 L 6.640625 -1.546875 L 6.46875 -1.21875 L 6.390625 -0.828125 L 6.234375 -0.53125 L 5.96875 -0.15625 L 5.578125 -0.015625 L 4.921875 0.015625 L 4.53125 -0.1875 Z M 4.25 -0.484375 "/></g></g></g><g fill="#ff84d9" fill-opacity="1"><g transform="translate(430.010944, 752.683981)"><g><path d="M 5.828125 -0.09375 L 5.484375 -0.171875 L 4.625 -0.140625 L 4.109375 -0.0625 L 3.40625 -0.109375 L 3.0625 -0.0625 L 2.515625 -0.03125 L 2.015625 -0.09375 L 1.6875 -0.046875 L 1.359375 -0.03125 L 1.015625 -0.1875 L 0.8125 -0.640625 L 0.828125 -2.25 L 1.015625 -2.5625 L 2.140625 -2.953125 L 2.328125 -3.46875 L 2.125 -8.8125 L 1.953125 -9.28125 L 1.625 -9.46875 L 1.28125 -9.46875 L 0.875 -9.640625 L 0.6875 -10 L 0.703125 -10.328125 L 0.625 -11.609375 L 0.78125 -12.03125 L 1.125 -12.21875 L 1.53125 -12.21875 L 1.859375 -12.1875 L 3.296875 -12.21875 L 3.640625 -12.296875 L 3.953125 -12.265625 L 6.046875 -12.328125 L 6.375 -12.15625 L 6.59375 -11.828125 L 6.625 -10.09375 L 6.453125 -9.828125 L 6.078125 -9.671875 L 5.734375 -9.609375 L 5.375 -9.4375 L 5.25 -9.046875 L 5.234375 -7.265625 L 5.34375 -6.03125 L 5.296875 -5.65625 L 5.390625 -3.734375 L 5.328125 -3.390625 L 5.5625 -3.015625 L 5.96875 -2.890625 L 6.34375 -2.890625 L 6.734375 -2.703125 L 6.953125 -2.375 L 7 -0.65625 L 6.828125 -0.328125 L 6.515625 -0.140625 Z M 5.828125 -0.09375 "/></g></g></g><g fill="#ff84d9" fill-opacity="1"><g transform="translate(437.897643, 752.46812)"><g><path d="M 1.8125 0 L 1.5 -0.203125 L 1.3125 -0.734375 L 1.234375 -1.609375 L 1.28125 -1.96875 L 1.21875 -2.328125 L 1.21875 -2.609375 L 1.171875 -3.3125 L 1.21875 -4.03125 L 1.15625 -4.34375 L 1.15625 -5.015625 L 1.109375 -5.40625 L 1.15625 -6.125 L 1.09375 -6.40625 L 1.0625 -8.546875 L 1 -8.90625 L 1.046875 -9.25 L 0.953125 -11.375 L 0.984375 -11.671875 L 1.125 -12.015625 L 1.484375 -12.234375 L 1.859375 -12.265625 L 2.203125 -12.234375 L 2.546875 -12.265625 L 3.40625 -12.21875 L 3.921875 -12.0625 L 4.15625 -11.796875 L 4.140625 -11.078125 L 4.171875 -10.546875 L 4.140625 -10.125 L 4.1875 -9.8125 L 4.234375 -8.5625 L 4.234375 -8.234375 L 4.3125 -7.859375 L 4.625 -7.65625 L 5.015625 -7.671875 L 5.359375 -7.796875 L 5.75 -7.84375 L 6.046875 -8 L 6.65625 -8.453125 L 7.03125 -9.015625 L 7.125 -9.390625 L 7.21875 -9.640625 L 7.3125 -10.78125 L 7.296875 -11.125 L 7.34375 -11.453125 L 7.34375 -11.84375 L 7.46875 -12.1875 L 7.828125 -12.390625 L 8.34375 -12.421875 L 8.875 -12.375 L 9.453125 -12.453125 L 9.96875 -12.421875 L 10.34375 -12.28125 L 10.515625 -11.9375 L 10.5 -10.859375 L 10.53125 -10.5 L 10.4375 -9.390625 L 10.1875 -8.375 L 10.0625 -8.0625 L 9.8125 -7.609375 L 9.265625 -6.875 L 8.75 -6.40625 L 8.546875 -6.03125 L 8.625 -5.625 L 9.21875 -4.71875 L 9.375 -4.4375 L 9.5625 -4.109375 L 9.765625 -3.859375 L 10.328125 -3 L 10.5625 -2.734375 L 11.6875 -0.78125 L 11.609375 -0.40625 L 11.25 -0.3125 L 10.90625 -0.3125 L 10.59375 -0.28125 L 8.828125 -0.203125 L 8.4375 -0.375 L 8.09375 -0.6875 L 7.921875 -0.921875 L 7.71875 -1.25 L 7.515625 -1.484375 L 7.171875 -2.140625 L 7 -2.359375 L 6.875 -2.65625 L 6.125 -3.8125 L 6 -4.171875 L 5.828125 -4.4375 L 5.40625 -4.734375 L 4.9375 -4.75 L 4.5 -4.546875 L 4.328125 -4.25 L 4.421875 -2.421875 L 4.390625 -2.0625 L 4.453125 -0.671875 L 4.28125 -0.265625 L 3.9375 -0.125 L 3.375 -0.0625 L 2.890625 -0.078125 Z M 1.8125 0 "/></g></g></g><g fill="#ff84d9" fill-opacity="1"><g transform="translate(449.936148, 752.138622)"><g><path d="M 5.828125 -0.09375 L 5.484375 -0.171875 L 4.625 -0.140625 L 4.109375 -0.0625 L 3.40625 -0.109375 L 3.0625 -0.0625 L 2.515625 -0.03125 L 2.015625 -0.09375 L 1.6875 -0.046875 L 1.359375 -0.03125 L 1.015625 -0.1875 L 0.8125 -0.640625 L 0.828125 -2.25 L 1.015625 -2.5625 L 2.140625 -2.953125 L 2.328125 -3.46875 L 2.125 -8.8125 L 1.953125 -9.28125 L 1.625 -9.46875 L 1.28125 -9.46875 L 0.875 -9.640625 L 0.6875 -10 L 0.703125 -10.328125 L 0.625 -11.609375 L 0.78125 -12.03125 L 1.125 -12.21875 L 1.53125 -12.21875 L 1.859375 -12.1875 L 3.296875 -12.21875 L 3.640625 -12.296875 L 3.953125 -12.265625 L 6.046875 -12.328125 L 6.375 -12.15625 L 6.59375 -11.828125 L 6.625 -10.09375 L 6.453125 -9.828125 L 6.078125 -9.671875 L 5.734375 -9.609375 L 5.375 -9.4375 L 5.25 -9.046875 L 5.234375 -7.265625 L 5.34375 -6.03125 L 5.296875 -5.65625 L 5.390625 -3.734375 L 5.328125 -3.390625 L 5.5625 -3.015625 L 5.96875 -2.890625 L 6.34375 -2.890625 L 6.734375 -2.703125 L 6.953125 -2.375 L 7 -0.65625 L 6.828125 -0.328125 L 6.515625 -0.140625 Z M 5.828125 -0.09375 "/></g></g></g><g fill="#e71aa7" fill-opacity="1"><g transform="translate(327.425719, 755.670173)"><g><path d="M 3.609375 -1.609375 L 3.5 -2.53125 L 3.296875 -13.1875 L 3.109375 -14.65625 L 3.046875 -23.9375 L 2.859375 -25.984375 L 2.875 -28.859375 L 2.796875 -29.734375 L 2.8125 -30.765625 L 2.703125 -31.640625 L 2.671875 -32.703125 L 3.125 -33.75 L 4.171875 -34.265625 L 10.0625 -34.328125 L 10.953125 -34.546875 L 12.84375 -34.359375 L 13.71875 -34.578125 L 18.734375 -34.5625 L 20.640625 -34.1875 L 21.484375 -33.90625 L 22.40625 -33.5 L 23.25 -33.03125 L 23.953125 -32.53125 L 24.6875 -32.046875 L 25.4375 -31.390625 L 27.109375 -29.1875 L 27.484375 -28.171875 L 27.921875 -26.4375 L 28.0625 -24.921875 L 28.0625 -23.265625 L 27.53125 -21.5 L 26.640625 -19.59375 L 26.328125 -18.65625 L 26.859375 -17.546875 L 27.65625 -16.890625 L 28.296875 -16.171875 L 29.234375 -14.203125 L 29.8125 -12.46875 L 29.828125 -8.515625 L 29.453125 -7.578125 L 29.203125 -6.640625 L 28.71875 -5.671875 L 27.46875 -3.8125 L 25.5625 -2.21875 L 24.6875 -1.75 L 21.984375 -0.90625 L 21.125 -0.71875 L 16.125 -0.34375 L 15.140625 -0.46875 L 8.078125 -0.171875 L 6.625 -0.28125 L 5.015625 -0.09375 L 4.078125 -0.640625 Z M 13.078125 -21.15625 L 16.8125 -21.390625 L 18.203125 -21.921875 L 18.921875 -22.53125 L 19.234375 -23.953125 L 19.03125 -25.421875 L 18.625 -26.1875 L 17.84375 -26.5625 L 12.828125 -26.75 L 11.90625 -26.140625 L 11.359375 -24.71875 L 11.453125 -23.0625 L 12.03125 -21.703125 Z M 13.265625 -8.171875 L 17.03125 -8.15625 L 19.703125 -8.484375 L 20.5 -9.03125 L 21.015625 -9.734375 L 21.234375 -11.15625 L 20.890625 -12.359375 L 20.390625 -13.21875 L 19.5625 -13.546875 L 14.96875 -13.859375 L 13.953125 -13.734375 L 13.015625 -13.84375 L 12.203125 -13.203125 L 11.796875 -12.359375 L 11.734375 -9.4375 L 12.390625 -8.484375 Z M 13.265625 -8.171875 "/></g></g></g><g fill="#e71aa7" fill-opacity="1"><g transform="translate(358.295145, 754.825268)"><g><path d="M 15 -0.265625 L 13 -0.40625 L 12.03125 -0.234375 L 6.09375 -0.171875 L 5.109375 -0.046875 L 4.125 -0.5 L 3.609375 -2 L 3.53125 -4.484375 L 3.421875 -5.40625 L 2.71875 -32.609375 L 3.125 -33.65625 L 4.171875 -34.125 L 5.171875 -34.109375 L 6.03125 -34.265625 L 17.125 -34.484375 L 20 -34.125 L 21.046875 -33.890625 L 21.875 -33.53125 L 22.859375 -33.375 L 23.796875 -32.84375 L 26.328125 -31.265625 L 28.984375 -28.453125 L 30.703125 -25.921875 L 31.125 -25.015625 L 31.8125 -23.1875 L 32.609375 -19.359375 L 32.6875 -17.953125 L 32.578125 -16.390625 L 32.609375 -15.375 L 32.484375 -14.390625 L 32.21875 -13.546875 L 32.0625 -12.53125 L 31.828125 -11.59375 L 31.109375 -9.671875 L 30.546875 -8.875 L 30.09375 -7.890625 L 27.78125 -4.765625 L 24.578125 -2.46875 L 22.328125 -1.4375 L 20.34375 -1.046875 L 18.953125 -0.5625 L 17.96875 -0.53125 L 16.46875 -0.3125 Z M 14.640625 -8.25 L 16.09375 -8.34375 L 18.1875 -8.640625 L 19.59375 -9.125 L 21.203125 -10.234375 L 22.953125 -12.328125 L 23.71875 -14.140625 L 24.109375 -17.578125 L 23.21875 -21.828125 L 22.75 -22.6875 L 22.25 -23.5 L 21.484375 -24.359375 L 20.734375 -25.03125 L 20 -25.53125 L 19.125 -25.953125 L 17.21875 -26.421875 L 15.796875 -26.546875 L 13.75 -26.4375 L 12.203125 -26.0625 L 11.75 -24.921875 L 11.671875 -24.09375 L 11.953125 -17.390625 L 11.8125 -14.9375 L 12.09375 -12.5625 L 12.09375 -10.578125 L 12.171875 -9.75 L 12.578125 -8.8125 L 13.703125 -8.3125 Z M 14.640625 -8.25 "/></g></g></g></svg>